<mxfile host="Electron" agent="Mozilla/5.0 (Windows NT 10.0; Win64; x64) AppleWebKit/537.36 (KHTML, like Gecko) draw.io/24.7.5 Chrome/126.0.6478.183 Electron/31.3.0 Safari/537.36" version="24.7.5" pages="3">
  <diagram name="concept" id="Vo836KRtg2Vef9Qr1ljP">
    <mxGraphModel dx="2899" dy="1194" grid="1" gridSize="10" guides="1" tooltips="1" connect="1" arrows="1" fold="1" page="1" pageScale="1" pageWidth="850" pageHeight="1100" math="0" shadow="0">
      <root>
        <mxCell id="0" />
        <mxCell id="1" parent="0" />
        <mxCell id="dTm7L99Izdk6iNQH5idc-1" value="&lt;h1 style=&quot;margin-top: 0px;&quot;&gt;Migrate&lt;/h1&gt;&lt;p&gt;&lt;font style=&quot;font-size: 16px;&quot;&gt;&quot;migrate&quot; หรือ &quot;ไมเกรต&quot; ในบริบทของเทคโนโลยีสารสนเทศ หมายถึงการย้ายหรือโอนย้ายข้อมูล, ระบบ, หรือแอปพลิเคชันจากที่หนึ่งไปยังอีกที่หนึ่ง&lt;/font&gt;&lt;/p&gt;" style="text;html=1;whiteSpace=wrap;overflow=hidden;rounded=0;fillColor=none;strokeColor=default;spacing=5;" parent="1" vertex="1">
          <mxGeometry x="40" y="40" width="440" height="120" as="geometry" />
        </mxCell>
        <mxCell id="dTm7L99Izdk6iNQH5idc-2" value="&lt;h1 style=&quot;margin-top: 0px;&quot;&gt;Purge and Archive&lt;/h1&gt;&lt;p&gt;&lt;font style=&quot;font-size: 16px;&quot;&gt;เป็นกระบวนการในการลบหรือย้ายข้อมูลจากฐานข้อมูล (ในกรณีนี้คือ MySQL) ไปยังที่จัดเก็บภายนอก เพื่อช่วยลดขนาดของฐานข้อมูลหลัก และยังคงเก็บรักษาข้อมูลที่ไม่ค่อยได้ใช้งานในที่อื่นที่ปลอดภัย&lt;/font&gt;&lt;/p&gt;" style="text;html=1;whiteSpace=wrap;overflow=hidden;rounded=0;fillColor=none;strokeColor=default;spacing=5;" parent="1" vertex="1">
          <mxGeometry x="880" y="40" width="600" height="120" as="geometry" />
        </mxCell>
        <mxCell id="dTm7L99Izdk6iNQH5idc-5" value="" style="edgeStyle=orthogonalEdgeStyle;rounded=0;orthogonalLoop=1;jettySize=auto;html=1;exitX=1;exitY=0.5;exitDx=0;exitDy=0;entryX=0;entryY=0.5;entryDx=0;entryDy=0;" parent="1" source="dTm7L99Izdk6iNQH5idc-10" target="dTm7L99Izdk6iNQH5idc-4" edge="1">
          <mxGeometry relative="1" as="geometry">
            <mxPoint x="-83.80000000000018" y="540" as="sourcePoint" />
            <mxPoint x="20" y="540" as="targetPoint" />
          </mxGeometry>
        </mxCell>
        <mxCell id="dTm7L99Izdk6iNQH5idc-28" value="" style="edgeStyle=orthogonalEdgeStyle;rounded=0;orthogonalLoop=1;jettySize=auto;html=1;" parent="1" source="dTm7L99Izdk6iNQH5idc-4" target="dTm7L99Izdk6iNQH5idc-17" edge="1">
          <mxGeometry relative="1" as="geometry" />
        </mxCell>
        <mxCell id="dTm7L99Izdk6iNQH5idc-4" value="&lt;font style=&quot;font-size: 16px;&quot;&gt;ค้นหา Tabale จาก ชื่อ table&lt;/font&gt;" style="whiteSpace=wrap;html=1;strokeWidth=2;rounded=1;arcSize=12;" parent="1" vertex="1">
          <mxGeometry y="520" width="120" height="80" as="geometry" />
        </mxCell>
        <mxCell id="dTm7L99Izdk6iNQH5idc-13" style="edgeStyle=orthogonalEdgeStyle;rounded=0;orthogonalLoop=1;jettySize=auto;html=1;" parent="1" edge="1">
          <mxGeometry relative="1" as="geometry">
            <mxPoint x="59.5" y="400" as="sourcePoint" />
            <mxPoint x="59.5" y="520" as="targetPoint" />
          </mxGeometry>
        </mxCell>
        <mxCell id="dTm7L99Izdk6iNQH5idc-16" value="&lt;font style=&quot;font-size: 16px;&quot;&gt;ดึงข้อมูล&lt;/font&gt;" style="edgeLabel;html=1;align=center;verticalAlign=middle;resizable=0;points=[];" parent="dTm7L99Izdk6iNQH5idc-13" vertex="1" connectable="0">
          <mxGeometry x="-0.0833" y="3" relative="1" as="geometry">
            <mxPoint x="-2" y="5" as="offset" />
          </mxGeometry>
        </mxCell>
        <mxCell id="dTm7L99Izdk6iNQH5idc-8" value="&lt;font style=&quot;font-size: 16px;&quot;&gt;Mysql&lt;/font&gt;" style="strokeWidth=2;html=1;shape=mxgraph.flowchart.database;whiteSpace=wrap;spacingTop=5;" parent="1" vertex="1">
          <mxGeometry x="30" y="350" width="60" height="50" as="geometry" />
        </mxCell>
        <mxCell id="dTm7L99Izdk6iNQH5idc-10" value="&lt;font style=&quot;font-size: 16px;&quot;&gt;ชื่อ table&lt;/font&gt;" style="text;html=1;align=center;verticalAlign=middle;whiteSpace=wrap;rounded=0;" parent="1" vertex="1">
          <mxGeometry x="-240" y="540" width="100" height="40" as="geometry" />
        </mxCell>
        <mxCell id="dTm7L99Izdk6iNQH5idc-21" value="" style="edgeStyle=orthogonalEdgeStyle;rounded=0;orthogonalLoop=1;jettySize=auto;html=1;" parent="1" source="dTm7L99Izdk6iNQH5idc-17" target="dTm7L99Izdk6iNQH5idc-20" edge="1">
          <mxGeometry relative="1" as="geometry" />
        </mxCell>
        <mxCell id="dTm7L99Izdk6iNQH5idc-17" value="&lt;font style=&quot;font-size: 16px;&quot;&gt;แปลงเป็น&amp;nbsp;&lt;/font&gt;&lt;span style=&quot;font-size: 16px;&quot;&gt;document&lt;/span&gt;" style="whiteSpace=wrap;html=1;strokeWidth=2;rounded=1;arcSize=12;" parent="1" vertex="1">
          <mxGeometry x="-15" y="680" width="150" height="80" as="geometry" />
        </mxCell>
        <mxCell id="dTm7L99Izdk6iNQH5idc-19" value="&lt;span style=&quot;font-size: 16px;&quot;&gt;Mongodb&lt;/span&gt;" style="strokeWidth=2;html=1;shape=mxgraph.flowchart.database;whiteSpace=wrap;spacingTop=5;" parent="1" vertex="1">
          <mxGeometry x="-320" y="975" width="90" height="50" as="geometry" />
        </mxCell>
        <mxCell id="dTm7L99Izdk6iNQH5idc-25" value="" style="edgeStyle=orthogonalEdgeStyle;rounded=0;orthogonalLoop=1;jettySize=auto;html=1;" parent="1" source="dTm7L99Izdk6iNQH5idc-20" target="dTm7L99Izdk6iNQH5idc-24" edge="1">
          <mxGeometry relative="1" as="geometry" />
        </mxCell>
        <mxCell id="dTm7L99Izdk6iNQH5idc-20" value="&lt;span style=&quot;font-size: 16px;&quot;&gt;สร้าง collection ตามชื่อ table&lt;/span&gt;" style="whiteSpace=wrap;html=1;strokeWidth=2;rounded=1;arcSize=12;" parent="1" vertex="1">
          <mxGeometry y="840" width="120" height="80" as="geometry" />
        </mxCell>
        <mxCell id="dTm7L99Izdk6iNQH5idc-22" style="edgeStyle=orthogonalEdgeStyle;rounded=0;orthogonalLoop=1;jettySize=auto;html=1;entryX=0.5;entryY=0;entryDx=0;entryDy=0;entryPerimeter=0;" parent="1" source="dTm7L99Izdk6iNQH5idc-20" target="dTm7L99Izdk6iNQH5idc-19" edge="1">
          <mxGeometry relative="1" as="geometry" />
        </mxCell>
        <mxCell id="dTm7L99Izdk6iNQH5idc-29" style="edgeStyle=orthogonalEdgeStyle;rounded=0;orthogonalLoop=1;jettySize=auto;html=1;" parent="1" source="dTm7L99Izdk6iNQH5idc-24" target="dTm7L99Izdk6iNQH5idc-19" edge="1">
          <mxGeometry relative="1" as="geometry" />
        </mxCell>
        <mxCell id="dTm7L99Izdk6iNQH5idc-24" value="&lt;span style=&quot;font-size: 16px;&quot;&gt;insert&amp;nbsp;&lt;/span&gt;&lt;span style=&quot;font-size: 16px;&quot;&gt;document&lt;/span&gt;" style="whiteSpace=wrap;html=1;strokeWidth=2;rounded=1;arcSize=12;" parent="1" vertex="1">
          <mxGeometry x="-15" y="960" width="150" height="80" as="geometry" />
        </mxCell>
        <mxCell id="dTm7L99Izdk6iNQH5idc-30" value="" style="edgeStyle=orthogonalEdgeStyle;rounded=0;orthogonalLoop=1;jettySize=auto;html=1;exitX=1;exitY=0.5;exitDx=0;exitDy=0;entryX=0;entryY=0.5;entryDx=0;entryDy=0;" parent="1" source="dTm7L99Izdk6iNQH5idc-35" target="dTm7L99Izdk6iNQH5idc-31" edge="1">
          <mxGeometry relative="1" as="geometry">
            <mxPoint x="1056.1999999999998" y="540" as="sourcePoint" />
            <mxPoint x="1160" y="540" as="targetPoint" />
          </mxGeometry>
        </mxCell>
        <mxCell id="dTm7L99Izdk6iNQH5idc-37" value="" style="edgeStyle=orthogonalEdgeStyle;rounded=0;orthogonalLoop=1;jettySize=auto;html=1;" parent="1" source="dTm7L99Izdk6iNQH5idc-31" target="dTm7L99Izdk6iNQH5idc-36" edge="1">
          <mxGeometry relative="1" as="geometry" />
        </mxCell>
        <mxCell id="dTm7L99Izdk6iNQH5idc-31" value="&lt;font style=&quot;font-size: 16px;&quot;&gt;ค้นหา Tabale จาก ชื่อ table&lt;/font&gt;" style="whiteSpace=wrap;html=1;strokeWidth=2;rounded=1;arcSize=12;" parent="1" vertex="1">
          <mxGeometry x="1140" y="520" width="120" height="80" as="geometry" />
        </mxCell>
        <mxCell id="dTm7L99Izdk6iNQH5idc-32" style="edgeStyle=orthogonalEdgeStyle;rounded=0;orthogonalLoop=1;jettySize=auto;html=1;" parent="1" edge="1">
          <mxGeometry relative="1" as="geometry">
            <mxPoint x="1199.5" y="400" as="sourcePoint" />
            <mxPoint x="1199.5" y="520" as="targetPoint" />
          </mxGeometry>
        </mxCell>
        <mxCell id="dTm7L99Izdk6iNQH5idc-33" value="&lt;font style=&quot;font-size: 16px;&quot;&gt;ดึงข้อมูล&lt;/font&gt;" style="edgeLabel;html=1;align=center;verticalAlign=middle;resizable=0;points=[];" parent="dTm7L99Izdk6iNQH5idc-32" vertex="1" connectable="0">
          <mxGeometry x="-0.0833" y="3" relative="1" as="geometry">
            <mxPoint x="-2" y="5" as="offset" />
          </mxGeometry>
        </mxCell>
        <mxCell id="dTm7L99Izdk6iNQH5idc-34" value="&lt;font style=&quot;font-size: 16px;&quot;&gt;MongoDB&lt;/font&gt;" style="strokeWidth=2;html=1;shape=mxgraph.flowchart.database;whiteSpace=wrap;spacingTop=5;" parent="1" vertex="1">
          <mxGeometry x="1140" y="350" width="120" height="50" as="geometry" />
        </mxCell>
        <mxCell id="dTm7L99Izdk6iNQH5idc-35" value="&lt;font style=&quot;font-size: 16px;&quot;&gt;ชื่อ table&lt;/font&gt;" style="text;html=1;align=center;verticalAlign=middle;whiteSpace=wrap;rounded=0;" parent="1" vertex="1">
          <mxGeometry x="900" y="540" width="100" height="40" as="geometry" />
        </mxCell>
        <mxCell id="dTm7L99Izdk6iNQH5idc-39" value="" style="edgeStyle=orthogonalEdgeStyle;rounded=0;orthogonalLoop=1;jettySize=auto;html=1;" parent="1" source="dTm7L99Izdk6iNQH5idc-36" target="dTm7L99Izdk6iNQH5idc-38" edge="1">
          <mxGeometry relative="1" as="geometry" />
        </mxCell>
        <mxCell id="dTm7L99Izdk6iNQH5idc-36" value="&lt;font style=&quot;font-size: 16px;&quot;&gt;แปลงเป็น csv&lt;/font&gt;" style="whiteSpace=wrap;html=1;strokeWidth=2;rounded=1;arcSize=12;" parent="1" vertex="1">
          <mxGeometry x="1125" y="680" width="150" height="80" as="geometry" />
        </mxCell>
        <mxCell id="dTm7L99Izdk6iNQH5idc-41" value="" style="edgeStyle=orthogonalEdgeStyle;rounded=0;orthogonalLoop=1;jettySize=auto;html=1;" parent="1" source="dTm7L99Izdk6iNQH5idc-38" target="dTm7L99Izdk6iNQH5idc-40" edge="1">
          <mxGeometry relative="1" as="geometry" />
        </mxCell>
        <mxCell id="dTm7L99Izdk6iNQH5idc-38" value="&lt;span style=&quot;font-size: 16px;&quot;&gt;สร้างไฟล์ csv&lt;/span&gt;" style="whiteSpace=wrap;html=1;strokeWidth=2;rounded=1;arcSize=12;" parent="1" vertex="1">
          <mxGeometry x="1125" y="840" width="150" height="80" as="geometry" />
        </mxCell>
        <mxCell id="dTm7L99Izdk6iNQH5idc-40" value="&lt;span style=&quot;font-size: 16px;&quot;&gt;ลบข้อมูลใน&amp;nbsp;&lt;/span&gt;&lt;span style=&quot;font-size: 16px;&quot;&gt;MongoDB&lt;/span&gt;" style="whiteSpace=wrap;html=1;strokeWidth=2;rounded=1;arcSize=12;" parent="1" vertex="1">
          <mxGeometry x="1107.5" y="1000" width="185" height="80" as="geometry" />
        </mxCell>
        <mxCell id="WPehYB7k4HVEUTiNLX_s-2" value="&lt;font style=&quot;font-size: 16px;&quot;&gt;Mysql script&lt;/font&gt;&lt;div&gt;&lt;font style=&quot;font-size: 16px;&quot;&gt;Csv&lt;/font&gt;&lt;/div&gt;" style="text;html=1;align=left;verticalAlign=top;whiteSpace=wrap;rounded=0;strokeColor=default;spacing=5;" vertex="1" parent="1">
          <mxGeometry x="1310" y="680" width="230" height="80" as="geometry" />
        </mxCell>
      </root>
    </mxGraphModel>
  </diagram>
  <diagram id="6nZ2LkNtp1WmxdG4tTfu" name="Flowchart">
    <mxGraphModel dx="2284" dy="1936" grid="1" gridSize="10" guides="1" tooltips="1" connect="1" arrows="1" fold="1" page="1" pageScale="1" pageWidth="850" pageHeight="1100" math="0" shadow="0">
      <root>
        <mxCell id="0" />
        <mxCell id="1" parent="0" />
        <mxCell id="ui6QsIOCNeIlsztQJvhC-5" value="" style="edgeStyle=orthogonalEdgeStyle;rounded=0;orthogonalLoop=1;jettySize=auto;html=1;exitX=0.5;exitY=1;exitDx=0;exitDy=0;" parent="1" source="ui6QsIOCNeIlsztQJvhC-20" target="ui6QsIOCNeIlsztQJvhC-4" edge="1">
          <mxGeometry relative="1" as="geometry">
            <mxPoint x="95" y="140" as="sourcePoint" />
          </mxGeometry>
        </mxCell>
        <mxCell id="ui6QsIOCNeIlsztQJvhC-11" value="" style="edgeStyle=orthogonalEdgeStyle;rounded=0;orthogonalLoop=1;jettySize=auto;html=1;" parent="1" source="ui6QsIOCNeIlsztQJvhC-4" target="ui6QsIOCNeIlsztQJvhC-10" edge="1">
          <mxGeometry relative="1" as="geometry" />
        </mxCell>
        <mxCell id="ui6QsIOCNeIlsztQJvhC-4" value="&lt;span style=&quot;font-size: 16px;&quot;&gt;Get input config&lt;/span&gt;" style="rounded=1;whiteSpace=wrap;html=1;absoluteArcSize=1;arcSize=14;strokeWidth=2;fillColor=#d5e8d4;strokeColor=#82b366;" parent="1" vertex="1">
          <mxGeometry x="-20" y="180" width="230" height="40" as="geometry" />
        </mxCell>
        <mxCell id="ui6QsIOCNeIlsztQJvhC-6" value="&lt;font style=&quot;font-size: 16px;&quot;&gt;&lt;b&gt;Input config&lt;/b&gt;&lt;/font&gt;" style="swimlane;fontStyle=0;childLayout=stackLayout;horizontal=1;startSize=30;horizontalStack=0;resizeParent=1;resizeParentMax=0;resizeLast=0;collapsible=1;marginBottom=0;whiteSpace=wrap;html=1;fillColor=#d5e8d4;strokeColor=#82b366;" parent="1" vertex="1">
          <mxGeometry x="-360" y="80" width="280" height="120" as="geometry" />
        </mxCell>
        <mxCell id="ui6QsIOCNeIlsztQJvhC-7" value="Collection name : String" style="text;strokeColor=none;fillColor=none;align=left;verticalAlign=middle;spacingLeft=4;spacingRight=4;overflow=hidden;points=[[0,0.5],[1,0.5]];portConstraint=eastwest;rotatable=0;whiteSpace=wrap;html=1;fontSize=16;" parent="ui6QsIOCNeIlsztQJvhC-6" vertex="1">
          <mxGeometry y="30" width="280" height="30" as="geometry" />
        </mxCell>
        <mxCell id="ui6QsIOCNeIlsztQJvhC-8" value="Docment limit per file : Number" style="text;strokeColor=none;fillColor=none;align=left;verticalAlign=middle;spacingLeft=4;spacingRight=4;overflow=hidden;points=[[0,0.5],[1,0.5]];portConstraint=eastwest;rotatable=0;whiteSpace=wrap;html=1;fontSize=16;" parent="ui6QsIOCNeIlsztQJvhC-6" vertex="1">
          <mxGeometry y="60" width="280" height="30" as="geometry" />
        </mxCell>
        <mxCell id="ui6QsIOCNeIlsztQJvhC-18" value="Pass year&amp;nbsp;&lt;span style=&quot;text-align: center;&quot;&gt;document&lt;/span&gt;&amp;nbsp;: Number" style="text;strokeColor=none;fillColor=none;align=left;verticalAlign=middle;spacingLeft=4;spacingRight=4;overflow=hidden;points=[[0,0.5],[1,0.5]];portConstraint=eastwest;rotatable=0;whiteSpace=wrap;html=1;fontSize=16;" parent="ui6QsIOCNeIlsztQJvhC-6" vertex="1">
          <mxGeometry y="90" width="280" height="30" as="geometry" />
        </mxCell>
        <mxCell id="ui6QsIOCNeIlsztQJvhC-19" style="edgeStyle=orthogonalEdgeStyle;rounded=0;orthogonalLoop=1;jettySize=auto;html=1;" parent="1" source="ui6QsIOCNeIlsztQJvhC-10" edge="1">
          <mxGeometry relative="1" as="geometry">
            <mxPoint x="95" y="1020" as="targetPoint" />
            <Array as="points">
              <mxPoint x="320" y="320" />
              <mxPoint x="320" y="1020" />
            </Array>
          </mxGeometry>
        </mxCell>
        <mxCell id="ui6QsIOCNeIlsztQJvhC-22" value="&lt;b&gt;No&lt;/b&gt;" style="edgeLabel;html=1;align=center;verticalAlign=middle;resizable=0;points=[];spacing=5;fontColor=#FF0000;fontSize=16;" parent="ui6QsIOCNeIlsztQJvhC-19" vertex="1" connectable="0">
          <mxGeometry x="-0.7893" relative="1" as="geometry">
            <mxPoint x="-80" as="offset" />
          </mxGeometry>
        </mxCell>
        <mxCell id="ui6QsIOCNeIlsztQJvhC-24" value="" style="edgeStyle=orthogonalEdgeStyle;rounded=0;orthogonalLoop=1;jettySize=auto;html=1;entryX=0.5;entryY=0;entryDx=0;entryDy=0;" parent="1" source="ui6QsIOCNeIlsztQJvhC-10" target="ui6QsIOCNeIlsztQJvhC-47" edge="1">
          <mxGeometry relative="1" as="geometry">
            <mxPoint x="95" y="440" as="targetPoint" />
          </mxGeometry>
        </mxCell>
        <mxCell id="ui6QsIOCNeIlsztQJvhC-25" value="Yes" style="edgeLabel;html=1;align=center;verticalAlign=middle;resizable=0;points=[];fontColor=#00CC00;fontSize=16;fontStyle=1" parent="ui6QsIOCNeIlsztQJvhC-24" vertex="1" connectable="0">
          <mxGeometry x="-0.2333" y="-2" relative="1" as="geometry">
            <mxPoint as="offset" />
          </mxGeometry>
        </mxCell>
        <mxCell id="ui6QsIOCNeIlsztQJvhC-10" value="&lt;font style=&quot;font-size: 16px;&quot;&gt;Check&lt;/font&gt;&lt;div&gt;&lt;font style=&quot;font-size: 16px;&quot;&gt;&lt;span style=&quot;text-align: left;&quot;&gt;validity&lt;/span&gt;&lt;/font&gt;&lt;/div&gt;&lt;div&gt;&lt;font style=&quot;font-size: 16px;&quot;&gt;&lt;span style=&quot;text-align: left;&quot;&gt;config&lt;/span&gt;&lt;/font&gt;&lt;/div&gt;" style="rhombus;whiteSpace=wrap;html=1;fillColor=#ffe6cc;strokeColor=#d79b00;rounded=1;arcSize=14;strokeWidth=2;fontSize=16;" parent="1" vertex="1">
          <mxGeometry x="35" y="260" width="120" height="120" as="geometry" />
        </mxCell>
        <mxCell id="ui6QsIOCNeIlsztQJvhC-20" value="&lt;span style=&quot;font-size: 16px;&quot;&gt;Start&lt;/span&gt;" style="rounded=1;whiteSpace=wrap;html=1;absoluteArcSize=1;arcSize=100;strokeWidth=2;fillColor=#f5f5f5;strokeColor=#666666;fontSize=16;fontColor=#333333;" parent="1" vertex="1">
          <mxGeometry x="50" y="80" width="90" height="40" as="geometry" />
        </mxCell>
        <mxCell id="ui6QsIOCNeIlsztQJvhC-21" value="&lt;span style=&quot;font-size: 16px;&quot;&gt;End&lt;/span&gt;" style="rounded=1;whiteSpace=wrap;html=1;absoluteArcSize=1;arcSize=100;strokeWidth=2;fillColor=#f5f5f5;strokeColor=#666666;fontSize=16;fontColor=#333333;" parent="1" vertex="1">
          <mxGeometry x="50" y="1070" width="90" height="40" as="geometry" />
        </mxCell>
        <mxCell id="ui6QsIOCNeIlsztQJvhC-32" value="" style="edgeStyle=orthogonalEdgeStyle;rounded=0;orthogonalLoop=1;jettySize=auto;html=1;entryX=0.5;entryY=0;entryDx=0;entryDy=0;" parent="1" source="ui6QsIOCNeIlsztQJvhC-30" target="ui6QsIOCNeIlsztQJvhC-33" edge="1">
          <mxGeometry relative="1" as="geometry">
            <mxPoint x="955" y="160" as="targetPoint" />
          </mxGeometry>
        </mxCell>
        <mxCell id="ui6QsIOCNeIlsztQJvhC-30" value="Check&amp;nbsp;&lt;span style=&quot;background-color: initial; text-align: left;&quot;&gt;validity&amp;nbsp;&lt;/span&gt;&lt;span style=&quot;background-color: initial; text-align: left;&quot;&gt;config&lt;/span&gt;" style="rounded=1;whiteSpace=wrap;html=1;absoluteArcSize=1;arcSize=100;strokeWidth=2;fillColor=#f5f5f5;strokeColor=#666666;fontSize=16;fontColor=#333333;" parent="1" vertex="1">
          <mxGeometry x="855" y="80" width="200" height="40" as="geometry" />
        </mxCell>
        <mxCell id="ui6QsIOCNeIlsztQJvhC-36" value="" style="edgeStyle=orthogonalEdgeStyle;rounded=0;orthogonalLoop=1;jettySize=auto;html=1;" parent="1" source="ui6QsIOCNeIlsztQJvhC-31" target="ui6QsIOCNeIlsztQJvhC-35" edge="1">
          <mxGeometry relative="1" as="geometry" />
        </mxCell>
        <mxCell id="ui6QsIOCNeIlsztQJvhC-31" value="&lt;span style=&quot;font-size: 16px;&quot;&gt;Get input config&lt;/span&gt;" style="rounded=1;whiteSpace=wrap;html=1;absoluteArcSize=1;arcSize=14;strokeWidth=2;fillColor=#d5e8d4;strokeColor=#82b366;" parent="1" vertex="1">
          <mxGeometry x="840" y="360" width="230" height="40" as="geometry" />
        </mxCell>
        <mxCell id="ui6QsIOCNeIlsztQJvhC-34" value="" style="edgeStyle=orthogonalEdgeStyle;rounded=0;orthogonalLoop=1;jettySize=auto;html=1;" parent="1" source="ui6QsIOCNeIlsztQJvhC-33" target="ui6QsIOCNeIlsztQJvhC-31" edge="1">
          <mxGeometry relative="1" as="geometry" />
        </mxCell>
        <mxCell id="ui6QsIOCNeIlsztQJvhC-41" style="edgeStyle=orthogonalEdgeStyle;rounded=0;orthogonalLoop=1;jettySize=auto;html=1;entryX=0.5;entryY=0;entryDx=0;entryDy=0;" parent="1" source="ui6QsIOCNeIlsztQJvhC-33" target="ui6QsIOCNeIlsztQJvhC-39" edge="1">
          <mxGeometry relative="1" as="geometry" />
        </mxCell>
        <mxCell id="ui6QsIOCNeIlsztQJvhC-33" value="&lt;font style=&quot;font-size: 16px;&quot;&gt;Check&lt;/font&gt;&lt;div&gt;&lt;font style=&quot;font-size: 16px;&quot;&gt;&lt;span style=&quot;text-align: left;&quot;&gt;connectected&lt;/span&gt;&lt;/font&gt;&lt;/div&gt;&lt;div&gt;&lt;font style=&quot;font-size: 16px;&quot;&gt;&lt;span style=&quot;text-align: left;&quot;&gt;mongodb&lt;/span&gt;&lt;/font&gt;&lt;/div&gt;" style="rhombus;whiteSpace=wrap;html=1;fillColor=#ffe6cc;strokeColor=#d79b00;rounded=1;arcSize=14;strokeWidth=2;fontSize=16;" parent="1" vertex="1">
          <mxGeometry x="877.5" y="160" width="155" height="130" as="geometry" />
        </mxCell>
        <mxCell id="ui6QsIOCNeIlsztQJvhC-40" style="edgeStyle=orthogonalEdgeStyle;rounded=0;orthogonalLoop=1;jettySize=auto;html=1;" parent="1" source="ui6QsIOCNeIlsztQJvhC-35" target="ui6QsIOCNeIlsztQJvhC-39" edge="1">
          <mxGeometry relative="1" as="geometry" />
        </mxCell>
        <mxCell id="ui6QsIOCNeIlsztQJvhC-42" value="" style="edgeStyle=orthogonalEdgeStyle;rounded=0;orthogonalLoop=1;jettySize=auto;html=1;" parent="1" source="ui6QsIOCNeIlsztQJvhC-35" target="ui6QsIOCNeIlsztQJvhC-38" edge="1">
          <mxGeometry relative="1" as="geometry" />
        </mxCell>
        <mxCell id="ui6QsIOCNeIlsztQJvhC-35" value="Check&lt;div&gt;config&lt;br&gt;&lt;/div&gt;" style="rhombus;whiteSpace=wrap;html=1;fillColor=#ffe6cc;strokeColor=#d79b00;rounded=1;arcSize=14;strokeWidth=2;fontSize=16;" parent="1" vertex="1">
          <mxGeometry x="877.5" y="440" width="155" height="140" as="geometry" />
        </mxCell>
        <mxCell id="ui6QsIOCNeIlsztQJvhC-37" value="Yes" style="edgeLabel;html=1;align=center;verticalAlign=middle;resizable=0;points=[];fontColor=#00CC00;fontSize=16;fontStyle=1" parent="1" vertex="1" connectable="0">
          <mxGeometry x="955" y="320" as="geometry" />
        </mxCell>
        <mxCell id="ui6QsIOCNeIlsztQJvhC-38" value="&lt;span style=&quot;font-size: 16px;&quot;&gt;End&lt;/span&gt;" style="rounded=1;whiteSpace=wrap;html=1;absoluteArcSize=1;arcSize=100;strokeWidth=2;fillColor=#f5f5f5;strokeColor=#666666;fontSize=16;fontColor=#333333;" parent="1" vertex="1">
          <mxGeometry x="910" y="680" width="90" height="40" as="geometry" />
        </mxCell>
        <mxCell id="ui6QsIOCNeIlsztQJvhC-46" style="edgeStyle=orthogonalEdgeStyle;rounded=0;orthogonalLoop=1;jettySize=auto;html=1;entryX=1;entryY=0.5;entryDx=0;entryDy=0;" parent="1" source="ui6QsIOCNeIlsztQJvhC-39" target="ui6QsIOCNeIlsztQJvhC-38" edge="1">
          <mxGeometry relative="1" as="geometry">
            <Array as="points">
              <mxPoint x="1240" y="700" />
            </Array>
          </mxGeometry>
        </mxCell>
        <mxCell id="ui6QsIOCNeIlsztQJvhC-39" value="&lt;span style=&quot;font-size: 16px;&quot;&gt;Log error&lt;/span&gt;" style="rounded=1;whiteSpace=wrap;html=1;absoluteArcSize=1;arcSize=14;strokeWidth=2;fillColor=#f8cecc;strokeColor=#b85450;" parent="1" vertex="1">
          <mxGeometry x="1125" y="490" width="230" height="40" as="geometry" />
        </mxCell>
        <mxCell id="ui6QsIOCNeIlsztQJvhC-43" value="&lt;font style=&quot;font-size: 16px;&quot; color=&quot;#ff0000&quot;&gt;No&lt;/font&gt;" style="edgeLabel;html=1;align=center;verticalAlign=middle;resizable=0;points=[];fontStyle=1" parent="1" vertex="1" connectable="0">
          <mxGeometry x="1055" y="510" as="geometry" />
        </mxCell>
        <mxCell id="ui6QsIOCNeIlsztQJvhC-44" value="&lt;font style=&quot;font-size: 16px;&quot; color=&quot;#ff0000&quot;&gt;No&lt;/font&gt;" style="edgeLabel;html=1;align=center;verticalAlign=middle;resizable=0;points=[];fontStyle=1" parent="1" vertex="1" connectable="0">
          <mxGeometry x="1055" y="225" as="geometry" />
        </mxCell>
        <mxCell id="ui6QsIOCNeIlsztQJvhC-45" value="Yes" style="edgeLabel;html=1;align=center;verticalAlign=middle;resizable=0;points=[];fontColor=#00CC00;fontSize=16;fontStyle=1" parent="1" vertex="1" connectable="0">
          <mxGeometry x="955" y="630" as="geometry" />
        </mxCell>
        <mxCell id="ui6QsIOCNeIlsztQJvhC-50" value="" style="edgeStyle=orthogonalEdgeStyle;rounded=0;orthogonalLoop=1;jettySize=auto;html=1;entryX=0.5;entryY=0;entryDx=0;entryDy=0;" parent="1" source="ui6QsIOCNeIlsztQJvhC-47" target="ui6QsIOCNeIlsztQJvhC-51" edge="1">
          <mxGeometry relative="1" as="geometry">
            <mxPoint x="95" y="680" as="targetPoint" />
          </mxGeometry>
        </mxCell>
        <mxCell id="ui6QsIOCNeIlsztQJvhC-47" value="Create document list" style="whiteSpace=wrap;html=1;fontSize=16;fillColor=#dae8fc;strokeColor=#6c8ebf;rounded=1;arcSize=14;strokeWidth=2;" parent="1" vertex="1">
          <mxGeometry x="-10" y="440" width="210" height="60" as="geometry" />
        </mxCell>
        <mxCell id="ui6QsIOCNeIlsztQJvhC-58" value="" style="edgeStyle=orthogonalEdgeStyle;rounded=0;orthogonalLoop=1;jettySize=auto;html=1;" parent="1" source="ui6QsIOCNeIlsztQJvhC-51" target="ui6QsIOCNeIlsztQJvhC-54" edge="1">
          <mxGeometry relative="1" as="geometry" />
        </mxCell>
        <mxCell id="ui6QsIOCNeIlsztQJvhC-51" value="Import docment from collection&lt;div&gt;for purge on document list&lt;/div&gt;" style="whiteSpace=wrap;html=1;fontSize=16;fillColor=#dae8fc;strokeColor=#6c8ebf;rounded=1;arcSize=14;strokeWidth=2;" parent="1" vertex="1">
          <mxGeometry x="-30" y="560" width="250" height="60" as="geometry" />
        </mxCell>
        <mxCell id="ui6QsIOCNeIlsztQJvhC-60" style="edgeStyle=orthogonalEdgeStyle;rounded=0;orthogonalLoop=1;jettySize=auto;html=1;entryX=0.5;entryY=0;entryDx=0;entryDy=0;" parent="1" source="ui6QsIOCNeIlsztQJvhC-52" target="ui6QsIOCNeIlsztQJvhC-21" edge="1">
          <mxGeometry relative="1" as="geometry">
            <mxPoint x="95" y="1020" as="targetPoint" />
          </mxGeometry>
        </mxCell>
        <mxCell id="ui6QsIOCNeIlsztQJvhC-52" value="remove docment&lt;div&gt;in collection&lt;/div&gt;" style="whiteSpace=wrap;html=1;fontSize=16;fillColor=#dae8fc;strokeColor=#6c8ebf;rounded=1;arcSize=14;strokeWidth=2;" parent="1" vertex="1">
          <mxGeometry x="10" y="920" width="170" height="60" as="geometry" />
        </mxCell>
        <mxCell id="ui6QsIOCNeIlsztQJvhC-57" value="" style="edgeStyle=orthogonalEdgeStyle;rounded=0;orthogonalLoop=1;jettySize=auto;html=1;" parent="1" source="ui6QsIOCNeIlsztQJvhC-54" target="ui6QsIOCNeIlsztQJvhC-56" edge="1">
          <mxGeometry relative="1" as="geometry" />
        </mxCell>
        <mxCell id="ui6QsIOCNeIlsztQJvhC-54" value="Arcive docment list&lt;div&gt;to file&lt;/div&gt;" style="whiteSpace=wrap;html=1;fontSize=16;fillColor=#dae8fc;strokeColor=#6c8ebf;rounded=1;arcSize=14;strokeWidth=2;" parent="1" vertex="1">
          <mxGeometry x="10" y="680" width="170" height="60" as="geometry" />
        </mxCell>
        <mxCell id="ui6QsIOCNeIlsztQJvhC-59" value="" style="edgeStyle=orthogonalEdgeStyle;rounded=0;orthogonalLoop=1;jettySize=auto;html=1;" parent="1" source="ui6QsIOCNeIlsztQJvhC-56" target="ui6QsIOCNeIlsztQJvhC-52" edge="1">
          <mxGeometry relative="1" as="geometry" />
        </mxCell>
        <mxCell id="ui6QsIOCNeIlsztQJvhC-56" value="Save file" style="whiteSpace=wrap;html=1;fontSize=16;fillColor=#dae8fc;strokeColor=#6c8ebf;rounded=1;arcSize=14;strokeWidth=2;" parent="1" vertex="1">
          <mxGeometry x="10" y="800" width="170" height="60" as="geometry" />
        </mxCell>
        <mxCell id="ui6QsIOCNeIlsztQJvhC-63" value="&lt;div style=&quot;font-size: 34px;&quot; data-docx-has-block-data=&quot;false&quot; data-lark-html-role=&quot;root&quot; data-page-id=&quot;BX3cdrGWoowrQlxb0qhuIvjisFb&quot;&gt;&lt;div class=&quot;old-record-id-BX3cdrGWoowrQlxb0qhuIvjisFb&quot;&gt;&lt;font style=&quot;font-size: 34px;&quot;&gt;&lt;b&gt;Purge and Arcive&lt;/b&gt;&lt;/font&gt;&lt;/div&gt;&lt;/div&gt;" style="text;html=1;align=center;verticalAlign=middle;whiteSpace=wrap;rounded=0;fillColor=#f5f5f5;fontColor=#333333;strokeColor=#666666;" parent="1" vertex="1">
          <mxGeometry x="-100" y="-130" width="390" height="90" as="geometry" />
        </mxCell>
      </root>
    </mxGraphModel>
  </diagram>
  <diagram id="5mgUqKhPbvFgbA_H7i9U" name="Page-2">
    <mxGraphModel dx="2284" dy="1936" grid="1" gridSize="10" guides="1" tooltips="1" connect="1" arrows="1" fold="1" page="1" pageScale="1" pageWidth="850" pageHeight="1100" math="0" shadow="0">
      <root>
        <mxCell id="0" />
        <mxCell id="1" parent="0" />
        <mxCell id="TBp3EWv7eVdW6XWv2oAz-6" value="&lt;table border=&quot;1&quot; width=&quot;100%&quot; height=&quot;100%&quot; cellpadding=&quot;4&quot; style=&quot;width: 100%; height: 100%; border-collapse: collapse; font-size: 16px;&quot;&gt;&lt;tbody&gt;&lt;tr&gt;&lt;th&gt;&lt;font style=&quot;font-size: 16px;&quot;&gt;Collection&lt;/font&gt;&lt;/th&gt;&lt;/tr&gt;&lt;tr&gt;&lt;td style=&quot;text-align: left;&quot;&gt;&lt;font style=&quot;font-size: 16px;&quot;&gt;- name : string&lt;br&gt;&lt;/font&gt;&lt;/td&gt;&lt;/tr&gt;&lt;tr&gt;&lt;td style=&quot;text-align: left;&quot;&gt;&lt;br&gt;&lt;/td&gt;&lt;/tr&gt;&lt;tr&gt;&lt;td style=&quot;text-align: left;&quot;&gt;+ checkInvalid(Collection )&lt;/td&gt;&lt;/tr&gt;&lt;/tbody&gt;&lt;/table&gt;" style="text;html=1;whiteSpace=wrap;strokeColor=none;fillColor=none;overflow=fill;spacing=5;align=center;" vertex="1" parent="1">
          <mxGeometry x="-120" y="-240" width="400" height="180" as="geometry" />
        </mxCell>
        <mxCell id="TBp3EWv7eVdW6XWv2oAz-16" value="&lt;table border=&quot;1&quot; width=&quot;100%&quot; height=&quot;100%&quot; cellpadding=&quot;4&quot; style=&quot;width: 100%; height: 100%; border-collapse: collapse; font-size: 16px;&quot;&gt;&lt;tbody&gt;&lt;tr&gt;&lt;th align=&quot;center&quot;&gt;&lt;font style=&quot;font-size: 16px;&quot;&gt;&amp;lt;&amp;lt; interface &amp;gt;&amp;gt;&lt;br&gt;Collection&lt;/font&gt;&lt;/th&gt;&lt;/tr&gt;&lt;tr&gt;&lt;td align=&quot;center&quot;&gt;&lt;font style=&quot;font-size: 16px;&quot;&gt;- name : string&lt;br&gt;&lt;/font&gt;&lt;/td&gt;&lt;/tr&gt;&lt;tr&gt;&lt;td align=&quot;center&quot;&gt;&lt;br&gt;&lt;/td&gt;&lt;/tr&gt;&lt;tr&gt;&lt;td&gt;&lt;br&gt;&lt;/td&gt;&lt;/tr&gt;&lt;/tbody&gt;&lt;/table&gt;" style="text;html=1;whiteSpace=wrap;strokeColor=none;fillColor=none;overflow=fill;spacing=5;" vertex="1" parent="1">
          <mxGeometry x="790" y="-300" width="180" height="180" as="geometry" />
        </mxCell>
      </root>
    </mxGraphModel>
  </diagram>
</mxfile>
